<svg xmlns="http://www.w3.org/2000/svg" viewBox="0 0 512 512">
  <defs>
    <!-- Warmer, slightly stronger background - linen not blush -->
    <radialGradient id="bg" cx="38%" cy="32%" r="80%">
      <stop offset="0%" stop-color="#f8f2e6"/>
      <stop offset="55%" stop-color="#ede0c4"/>
      <stop offset="100%" stop-color="#d8c8a8"/>
    </radialGradient>

    <!-- Deep wine - primary grape dark -->
    <linearGradient id="d1" x1="0%" y1="0%" x2="100%" y2="100%">
      <stop offset="0%" stop-color="#5a1020"/>
      <stop offset="100%" stop-color="#3a0a14"/>
    </linearGradient>
    <!-- Mid burgundy -->
    <linearGradient id="d2" x1="100%" y1="0%" x2="0%" y2="100%">
      <stop offset="0%" stop-color="#7a1828"/>
      <stop offset="100%" stop-color="#521018"/>
    </linearGradient>
    <!-- Lighter burgundy face -->
    <linearGradient id="d3" x1="0%" y1="100%" x2="100%" y2="0%">
      <stop offset="0%" stop-color="#982030"/>
      <stop offset="100%" stop-color="#6a1422"/>
    </linearGradient>
    <!-- Highlight face - ochre tinted not pink -->
    <linearGradient id="hi" x1="0%" y1="0%" x2="100%" y2="100%">
      <stop offset="0%" stop-color="#c8903a"/>
      <stop offset="100%" stop-color="#a87028"/>
    </linearGradient>
    <!-- Mid tone grape - amber shadow -->
    <linearGradient id="am" x1="0%" y1="0%" x2="100%" y2="100%">
      <stop offset="0%" stop-color="#8a4818"/>
      <stop offset="100%" stop-color="#5a2c08"/>
    </linearGradient>

    <!-- Linen highlight -->
    <linearGradient id="ln" x1="0%" y1="0%" x2="100%" y2="100%">
      <stop offset="0%" stop-color="#f5ecd4"/>
      <stop offset="100%" stop-color="#e8d8b0"/>
    </linearGradient>

    <!-- Bronze vine -->
    <linearGradient id="vn" x1="0%" y1="0%" x2="100%" y2="100%">
      <stop offset="0%" stop-color="#8a6020"/>
      <stop offset="100%" stop-color="#5a3c08"/>
    </linearGradient>

    <!-- Forest green leaves - more masculine, darker -->
    <linearGradient id="lf1" x1="0%" y1="0%" x2="100%" y2="100%">
      <stop offset="0%" stop-color="#4a6838"/>
      <stop offset="100%" stop-color="#2e4422"/>
    </linearGradient>
    <linearGradient id="lf2" x1="100%" y1="0%" x2="0%" y2="100%">
      <stop offset="0%" stop-color="#607848"/>
      <stop offset="100%" stop-color="#3c5228"/>
    </linearGradient>
    <linearGradient id="lf3" x1="0%" y1="100%" x2="100%" y2="0%">
      <stop offset="0%" stop-color="#384e28"/>
      <stop offset="100%" stop-color="#506038"/>
    </linearGradient>

    <filter id="glow"><feGaussianBlur stdDeviation="3" result="blur"/><feMerge><feMergeNode in="blur"/><feMergeNode in="SourceGraphic"/></feMerge></filter>
    <filter id="s1"><feGaussianBlur stdDeviation="2"/></filter>
  </defs>

  <!-- Background -->
  <rect width="512" height="512" rx="112" fill="url(#bg)"/>

  <!-- Subtle grid / canvas texture -->
  <line x1="0" y1="128" x2="512" y2="128" stroke="#a08060" stroke-width="0.5" opacity="0.08"/>
  <line x1="0" y1="256" x2="512" y2="256" stroke="#a08060" stroke-width="0.5" opacity="0.08"/>
  <line x1="0" y1="384" x2="512" y2="384" stroke="#a08060" stroke-width="0.5" opacity="0.08"/>
  <line x1="128" y1="0" x2="128" y2="512" stroke="#a08060" stroke-width="0.5" opacity="0.08"/>
  <line x1="256" y1="0" x2="256" y2="512" stroke="#a08060" stroke-width="0.5" opacity="0.08"/>
  <line x1="384" y1="0" x2="384" y2="512" stroke="#a08060" stroke-width="0.5" opacity="0.08"/>

  <!-- Diagonal cross lines - cubist feel -->
  <line x1="0" y1="0" x2="512" y2="512" stroke="#a08060" stroke-width="0.4" opacity="0.05"/>
  <line x1="512" y1="0" x2="0" y2="512" stroke="#a08060" stroke-width="0.4" opacity="0.05"/>

  <!-- ═══ LARGE LEAF - bottom left, bleeds off edge ═══ -->
  <polygon points="0,380  80,320  130,355  115,420  50,460  0,450" fill="url(#lf1)" opacity="0.88"/>
  <polygon points="0,380  80,320  70,345  30,360  0,380" fill="url(#lf2)" opacity="0.7"/>
  <polygon points="80,320  130,355  118,375  88,358  80,320" fill="url(#lf3)" opacity="0.6"/>
  <polygon points="50,460  115,420  110,438  65,455  50,460" fill="url(#lf1)" opacity="0.5"/>
  <!-- Vein lines -->
  <line x1="80" y1="320" x2="50" y2="435" stroke="#f5ecd4" stroke-width="1.2" opacity="0.3"/>
  <line x1="65" y1="377" x2="20" y2="358" stroke="#f5ecd4" stroke-width="0.7" opacity="0.2"/>
  <line x1="80" y1="355" x2="115" y2="340" stroke="#f5ecd4" stroke-width="0.7" opacity="0.2"/>
  <line x1="72" y1="395" x2="30" y2="408" stroke="#f5ecd4" stroke-width="0.6" opacity="0.18"/>

  <!-- ═══ LARGE LEAF - top right, bleeds off edge ═══ -->
  <polygon points="512,80  432,140  385,108  398,48  465,18  512,28" fill="url(#lf2)" opacity="0.85"/>
  <polygon points="512,80  432,140  445,118  490,95  512,80" fill="url(#lf1)" opacity="0.68"/>
  <polygon points="432,140  385,108  396,90  425,112  432,140" fill="url(#lf3)" opacity="0.58"/>
  <!-- Vein lines -->
  <line x1="432" y1="140" x2="468" y2="28" stroke="#f5ecd4" stroke-width="1.2" opacity="0.28"/>
  <line x1="450" y1="84" x2="500" y2="68" stroke="#f5ecd4" stroke-width="0.7" opacity="0.2"/>
  <line x1="445" y1="110" x2="400" y2="95" stroke="#f5ecd4" stroke-width="0.7" opacity="0.2"/>

  <!-- ═══ SMALL LEAF - upper left ═══ -->
  <polygon points="88,95  128,65  155,85  145,118  110,128  85,108" fill="url(#lf1)" opacity="0.8"/>
  <polygon points="88,95  128,65  122,82  100,90  88,95" fill="url(#lf2)" opacity="0.62"/>
  <polygon points="128,65  155,85  148,98  130,82  128,65" fill="url(#lf3)" opacity="0.52"/>
  <line x1="128" y1="65" x2="105" y2="120" stroke="#f5ecd4" stroke-width="1" opacity="0.28"/>
  <line x1="116" y1="92" x2="92" y2="80" stroke="#f5ecd4" stroke-width="0.6" opacity="0.2"/>
  <line x1="125" y1="100" x2="148" y2="90" stroke="#f5ecd4" stroke-width="0.6" opacity="0.2"/>

  <!-- ═══ VINE TENDRILS ═══ -->
  <!-- Main stem -->
  <path d="M235,85 C230,65 228,48 238,32 C244,20 256,14 262,4"
        stroke="url(#vn)" stroke-width="5" fill="none" stroke-linecap="round" opacity="0.9"/>
  <path d="M235,85 C230,65 228,48 238,32 C244,20 256,14 262,4"
        stroke="#f5ecd4" stroke-width="1.5" fill="none" stroke-linecap="round" opacity="0.25"/>

  <!-- Branch left to small leaf -->
  <path d="M232,72 C210,68 175,72 145,90"
        stroke="url(#vn)" stroke-width="3.5" fill="none" stroke-linecap="round" opacity="0.8"/>

  <!-- Branch right -->
  <path d="M245,60 C265,50 295,40 325,32 C348,26 370,28 390,20"
        stroke="url(#vn)" stroke-width="3" fill="none" stroke-linecap="round" opacity="0.75"/>

  <!-- Curling tendril 1 -->
  <path d="M260,50 C272,42 285,38 290,28 C293,20 286,14 292,8"
        stroke="url(#vn)" stroke-width="1.8" fill="none" stroke-linecap="round" opacity="0.6"/>

  <!-- Curling tendril 2 - lower left vine to bottom leaf -->
  <path d="M140,295 C105,320 72,330 40,355"
        stroke="url(#vn)" stroke-width="3" fill="none" stroke-linecap="round" opacity="0.7"/>

  <!-- ═══ GRAPE CLUSTER - shifted slightly left, fills canvas better ═══ -->
  <!-- Shadow -->
  <ellipse cx="242" cy="305" rx="130" ry="145" fill="#3a0a14" opacity="0.07" filter="url(#s1)"/>

  <!-- ROW 1 - top, 3 grapes -->
  <!-- G1 -->
  <polygon points="155,100  192,88  200,122  164,132" fill="url(#d3)" opacity="0.93"/>
  <polygon points="164,132  200,122  195,155  158,145" fill="url(#d1)" opacity="0.88"/>
  <polygon points="155,100  164,132  158,145  140,128  143,97" fill="url(#d2)" opacity="0.72"/>
  <polygon points="155,100  192,88  194,106  170,110" fill="url(#ln)" opacity="0.22"/>
  <polygon points="155,100  164,110  158,108  155,100" fill="url(#hi)" opacity="0.35"/>

  <!-- G2 -->
  <polygon points="198,86  238,76  244,112  206,120" fill="url(#d2)" opacity="0.91"/>
  <polygon points="206,120  244,112  240,148  200,138" fill="url(#d1)" opacity="0.86"/>
  <polygon points="198,86  206,120  200,138  182,118  185,83" fill="url(#d3)" opacity="0.68"/>
  <polygon points="198,86  238,76  235,95  212,98" fill="url(#ln)" opacity="0.25"/>
  <polygon points="198,86  210,96  204,93  198,86" fill="url(#hi)" opacity="0.38"/>

  <!-- G3 -->
  <polygon points="242,78  280,70  285,108  246,115" fill="url(#d3)" opacity="0.9"/>
  <polygon points="246,115  285,108  280,144  242,136" fill="url(#d1)" opacity="0.84"/>
  <polygon points="242,78  246,115  242,136  226,114  228,75" fill="url(#d2)" opacity="0.65"/>
  <polygon points="242,78  280,70  276,88  254,90" fill="url(#ln)" opacity="0.23"/>
  <polygon points="242,78  254,88  248,85  242,78" fill="url(#hi)" opacity="0.36"/>

  <!-- G4 - right side extends further -->
  <polygon points="284,82  320,76  324,114  288,120" fill="url(#am)" opacity="0.87"/>
  <polygon points="288,120  324,114  320,150  284,142" fill="url(#d2)" opacity="0.8"/>
  <polygon points="284,82  288,120  284,142  268,120  270,80" fill="url(#d1)" opacity="0.6"/>
  <polygon points="284,82  320,76  316,94  296,96" fill="url(#ln)" opacity="0.2"/>

  <!-- ROW 2 - 5 grapes, wider -->
  <!-- G5 -->
  <polygon points="128,148  166,135  174,172  136,182" fill="url(#d1)" opacity="0.92"/>
  <polygon points="136,182  174,172  170,208  130,198" fill="url(#d2)" opacity="0.86"/>
  <polygon points="128,148  136,182  130,198  112,175  115,145" fill="url(#d3)" opacity="0.68"/>
  <polygon points="128,148  166,135  164,154  142,157" fill="url(#ln)" opacity="0.2"/>
  <polygon points="128,148  140,158  134,155  128,148" fill="url(#hi)" opacity="0.32"/>

  <!-- G6 -->
  <polygon points="172,134  212,123  218,162  178,170" fill="url(#d3)" opacity="0.93"/>
  <polygon points="178,170  218,162  214,200  172,190" fill="url(#d1)" opacity="0.87"/>
  <polygon points="172,134  178,170  172,190  155,168  158,131" fill="url(#d2)" opacity="0.7"/>
  <polygon points="172,134  212,123  208,142  186,145" fill="url(#ln)" opacity="0.24"/>
  <polygon points="172,134  185,145  178,142  172,134" fill="url(#hi)" opacity="0.37"/>

  <!-- G7 -->
  <polygon points="216,120  256,112  262,152  222,160" fill="url(#d2)" opacity="0.91"/>
  <polygon points="222,160  262,152  258,190  218,180" fill="url(#d1)" opacity="0.85"/>
  <polygon points="216,120  222,160  218,180  200,158  202,117" fill="url(#d3)" opacity="0.66"/>
  <polygon points="216,120  256,112  252,132  228,134" fill="url(#ln)" opacity="0.26"/>
  <polygon points="216,120  230,132  222,128  216,120" fill="url(#hi)" opacity="0.4"/>

  <!-- G8 -->
  <polygon points="260,110  298,104  303,144  264,150" fill="url(#d3)" opacity="0.89"/>
  <polygon points="264,150  303,144  298,182  260,174" fill="url(#d1)" opacity="0.83"/>
  <polygon points="260,110  264,150  260,174  244,150  246,107" fill="url(#d2)" opacity="0.63"/>
  <polygon points="260,110  298,104  294,122  272,124" fill="url(#ln)" opacity="0.22"/>

  <!-- G9 - right edge -->
  <polygon points="302,108  338,103  342,142  304,148" fill="url(#am)" opacity="0.86"/>
  <polygon points="304,148  342,142  338,180  300,172" fill="url(#d2)" opacity="0.78"/>
  <polygon points="302,108  304,148  300,172  284,148  286,105" fill="url(#d1)" opacity="0.58"/>

  <!-- ROW 3 -->
  <!-- G10 -->
  <polygon points="112,205  152,192  160,230  120,240" fill="url(#d2)" opacity="0.91"/>
  <polygon points="120,240  160,230  156,268  116,258" fill="url(#d1)" opacity="0.85"/>
  <polygon points="112,205  120,240  116,258  98,234  100,202" fill="url(#d3)" opacity="0.67"/>
  <polygon points="112,205  152,192  150,210  128,213" fill="url(#ln)" opacity="0.2"/>

  <!-- G11 -->
  <polygon points="158,190  198,180  205,218  165,228" fill="url(#d1)" opacity="0.93"/>
  <polygon points="165,228  205,218  200,256  160,246" fill="url(#d3)" opacity="0.86"/>
  <polygon points="158,190  165,228  160,246  142,222  145,187" fill="url(#d2)" opacity="0.69"/>
  <polygon points="158,190  198,180  195,200  172,202" fill="url(#ln)" opacity="0.25"/>
  <polygon points="158,190  172,202  165,198  158,190" fill="url(#hi)" opacity="0.35"/>

  <!-- G12 -->
  <polygon points="202,178  242,170  248,210  208,218" fill="url(#d3)" opacity="0.91"/>
  <polygon points="208,218  248,210  244,250  204,240" fill="url(#d1)" opacity="0.84"/>
  <polygon points="202,178  208,218  204,240  186,216  188,175" fill="url(#d2)" opacity="0.65"/>
  <polygon points="202,178  242,170  238,190  215,192" fill="url(#ln)" opacity="0.27"/>
  <polygon points="202,178  216,190  208,186  202,178" fill="url(#hi)" opacity="0.38"/>

  <!-- G13 -->
  <polygon points="246,168  284,162  290,202  250,208" fill="url(#d2)" opacity="0.89"/>
  <polygon points="250,208  290,202  286,242  246,234" fill="url(#d1)" opacity="0.82"/>
  <polygon points="246,168  250,208  246,234  230,208  232,165" fill="url(#d3)" opacity="0.62"/>
  <polygon points="246,168  284,162  280,180  258,182" fill="url(#ln)" opacity="0.23"/>

  <!-- G14 - right -->
  <polygon points="288,164  325,158  330,198  292,204" fill="url(#am)" opacity="0.85"/>
  <polygon points="292,204  330,198  326,236  288,228" fill="url(#d2)" opacity="0.78"/>
  <polygon points="288,164  292,204  288,228  272,204  274,161" fill="url(#d1)" opacity="0.57"/>

  <!-- ROW 4 -->
  <!-- G15 -->
  <polygon points="128,262  168,250  175,290  136,300" fill="url(#d3)" opacity="0.9"/>
  <polygon points="136,300  175,290  170,328  130,318" fill="url(#d1)" opacity="0.84"/>
  <polygon points="128,262  136,300  130,318  112,294  114,259" fill="url(#d2)" opacity="0.65"/>
  <polygon points="128,262  168,250  165,268  143,270" fill="url(#ln)" opacity="0.2"/>

  <!-- G16 -->
  <polygon points="172,248  212,238  218,278  178,288" fill="url(#d1)" opacity="0.92"/>
  <polygon points="178,288  218,278  214,318  174,308" fill="url(#d2)" opacity="0.85"/>
  <polygon points="172,248  178,288  174,308  156,282  158,244" fill="url(#d3)" opacity="0.67"/>
  <polygon points="172,248  212,238  208,258  186,260" fill="url(#ln)" opacity="0.24"/>
  <polygon points="172,248  186,260  178,256  172,248" fill="url(#hi)" opacity="0.33"/>

  <!-- G17 -->
  <polygon points="216,236  255,228  260,270  220,278" fill="url(#d3)" opacity="0.9"/>
  <polygon points="220,278  260,270  256,310  216,302" fill="url(#d1)" opacity="0.83"/>
  <polygon points="216,236  220,278  216,302  198,276  200,232" fill="url(#d2)" opacity="0.63"/>
  <polygon points="216,236  255,228  252,248  228,250" fill="url(#ln)" opacity="0.26"/>

  <!-- G18 - right -->
  <polygon points="258,226  295,220  300,260  262,266" fill="url(#d2)" opacity="0.87"/>
  <polygon points="262,266  300,260  296,298  258,290" fill="url(#d1)" opacity="0.80"/>
  <polygon points="258,226  262,266  258,290  242,264  244,222" fill="url(#d3)" opacity="0.60"/>

  <!-- ROW 5 - narrowing -->
  <!-- G19 -->
  <polygon points="148,318  188,308  194,348  154,358" fill="url(#d1)" opacity="0.91"/>
  <polygon points="154,358  194,348  190,386  150,376" fill="url(#d2)" opacity="0.83"/>
  <polygon points="148,318  154,358  150,376  132,350  134,315" fill="url(#d3)" opacity="0.64"/>
  <polygon points="148,318  188,308  184,328  162,330" fill="url(#ln)" opacity="0.2"/>

  <!-- G20 -->
  <polygon points="192,305  232,296  238,338  198,346" fill="url(#d3)" opacity="0.89"/>
  <polygon points="198,346  238,338  234,378  194,368" fill="url(#d1)" opacity="0.82"/>
  <polygon points="192,305  198,346  194,368  176,342  178,302" fill="url(#d2)" opacity="0.62"/>
  <polygon points="192,305  232,296  228,315  206,317" fill="url(#ln)" opacity="0.24"/>
  <polygon points="192,305  206,317  198,313  192,305" fill="url(#hi)" opacity="0.32"/>

  <!-- G21 -->
  <polygon points="236,294  273,287  278,328  240,334" fill="url(#d2)" opacity="0.88"/>
  <polygon points="240,334  278,328  274,366  236,358" fill="url(#d1)" opacity="0.80"/>
  <polygon points="236,294  240,334  236,358  220,332  222,290" fill="url(#d3)" opacity="0.60"/>

  <!-- ROW 6 - bottom tip -->
  <!-- G22 -->
  <polygon points="165,378  205,368  210,408  170,416" fill="url(#d2)" opacity="0.88"/>
  <polygon points="170,416  210,408  206,440  168,432" fill="url(#d1)" opacity="0.8"/>
  <polygon points="165,378  170,416  168,432  150,408  152,375" fill="url(#d3)" opacity="0.60"/>

  <!-- G23 -->
  <polygon points="208,365  246,358  250,398  212,404" fill="url(#d1)" opacity="0.86"/>
  <polygon points="212,404  250,398  246,434  208,426" fill="url(#d2)" opacity="0.78"/>
  <polygon points="208,365  212,404  208,426  192,400  194,362" fill="url(#d3)" opacity="0.58"/>
  <polygon points="208,365  246,358  242,376  220,378" fill="url(#ln)" opacity="0.2"/>

  <!-- G24 - tip -->
  <polygon points="188,430  220,422  224,455  192,460" fill="url(#d3)" opacity="0.84"/>
  <polygon points="192,460  224,455  220,480  190,475" fill="url(#d1)" opacity="0.75"/>
  <polygon points="188,430  192,460  190,475  175,452  177,427" fill="url(#d2)" opacity="0.55"/>

  <!-- ═══ CONTOUR LINES - cubist structural lines ═══ -->
  <path d="M155,100 L128,148 L112,205 L128,262 L148,318 L165,378 L188,430"
        stroke="#3a0a14" stroke-width="1" fill="none" opacity="0.18"/>
  <path d="M284,82 L302,108 L288,164 L258,226"
        stroke="#3a0a14" stroke-width="0.8" fill="none" opacity="0.14"/>
  <path d="M242,78 L246,115 L222,160 L208,218 L216,236 L236,294 L246,358"
        stroke="#f5ecd4" stroke-width="0.7" fill="none" opacity="0.14"/>

  <!-- ═══ WORDMARK ═══ -->
  <rect x="290" y="420" width="195" height="50" rx="3" fill="#f8f2e6" opacity="0.75"/>
  <line x1="298" y1="421" x2="477" y2="421" stroke="#5a1020" stroke-width="0.6" opacity="0.22"/>
  <line x1="298" y1="469" x2="477" y2="469" stroke="#5a1020" stroke-width="0.4" opacity="0.15"/>

  <text x="385" y="453"
        font-family="Georgia, 'Palatino Linotype', serif"
        font-size="28"
        font-weight="400"
        font-style="italic"
        letter-spacing="9"
        fill="#3a0a14"
        opacity="0.9"
        text-anchor="middle">cuvée</text>
</svg>
